<?xml version="1.0" standalone="no"?>
<!DOCTYPE svg PUBLIC "-//W3C//DTD SVG 20010904//EN"
 "http://www.w3.org/TR/2001/REC-SVG-20010904/DTD/svg10.dtd">
<svg version="1.0" xmlns="http://www.w3.org/2000/svg"
 width="500.000000pt" height="500.000000pt" viewBox="0 0 500.000000 500.000000"
 preserveAspectRatio="xMidYMid meet">

<g transform="translate(0.000000,500.000000) scale(0.100000,-0.100000)"
fill="#000000" stroke="none">
<path d="M2399 3658 c-2 -88 -9 -101 -67 -123 -28 -11 -52 -23 -52 -27 0 -4
27 -28 60 -54 52 -41 60 -51 60 -80 0 -19 5 -54 12 -78 l12 -45 39 45 c21 24
44 44 50 44 7 0 36 -11 65 -25 63 -29 64 -23 22 69 l-31 65 30 60 c17 32 27
61 24 65 -4 3 -34 6 -67 6 l-61 0 -44 65 c-24 36 -45 65 -47 65 -2 0 -4 -24
-5 -52z"/>
<path d="M1407 3348 c-10 -117 -18 -238 -18 -268 -2 -92 -21 -128 -44 -83 -14
28 -252 233 -270 233 -3 0 -21 11 -38 24 -41 30 -195 103 -250 117 -23 6 -83
16 -134 22 -78 9 -102 7 -165 -8 -127 -30 -217 -89 -286 -185 -60 -83 -64 -91
-96 -186 -83 -249 -54 -548 89 -934 31 -82 149 -300 168 -308 4 -2 7 -9 7 -15
1 -18 110 -160 197 -255 63 -69 130 -130 208 -190 87 -67 228 -142 310 -166
33 -10 70 -22 83 -27 30 -12 234 -12 264 0 105 41 138 57 173 85 111 84 192
229 217 387 7 43 16 79 20 79 4 0 13 -7 20 -15 7 -8 44 -43 82 -77 68 -61 72
-63 135 -68 59 -4 66 -7 69 -27 4 -28 32 -30 39 -3 3 11 7 20 8 20 7 0 201
-148 213 -163 12 -14 27 -100 39 -222 3 -27 8 -53 12 -58 4 -4 38 29 76 73 45
53 75 80 89 80 30 0 66 -28 60 -45 -4 -8 -2 -15 4 -15 6 0 12 5 14 11 4 12 53
-1 108 -28 13 -7 26 -11 27 -9 2 2 -8 29 -22 61 -24 52 -25 58 -11 74 18 20
12 31 -16 31 -12 0 -26 17 -43 52 -24 51 -25 52 -7 82 10 17 27 31 38 32 39 2
43 5 46 32 2 15 9 27 16 26 6 -1 41 -2 76 -3 60 -1 64 -3 70 -27 5 -19 1 -30
-16 -43 -19 -16 -20 -21 -9 -35 16 -20 22 -20 46 -2 17 12 17 16 5 31 -9 11
-10 19 -3 23 6 4 12 16 14 27 3 11 13 21 24 23 11 2 27 10 36 18 14 12 18 11
35 -7 14 -16 27 -20 51 -16 27 5 32 2 35 -16 4 -31 36 -35 40 -5 3 21 9 23 70
26 65 3 67 2 82 -26 20 -39 42 -46 66 -22 26 26 25 54 0 71 -19 13 -20 17 -8
52 17 48 30 51 38 11 9 -43 16 -52 50 -59 29 -6 69 -59 56 -73 -12 -11 17 -32
45 -32 31 0 53 -25 64 -72 6 -23 13 -28 37 -28 40 0 68 -17 68 -41 0 -33 19
-59 43 -59 32 0 47 18 47 57 0 32 -1 33 -40 33 -30 0 -42 5 -50 21 -15 27 -6
61 21 77 33 21 73 -12 77 -62 3 -29 7 -36 18 -32 9 3 31 6 50 6 32 0 34 2 34
35 0 25 6 39 24 50 37 24 70 11 92 -38 22 -48 51 -58 78 -28 27 30 14 71 -22
71 -40 1 -64 23 -60 57 3 26 7 28 51 31 44 3 47 2 47 -21 0 -33 22 -49 61 -45
27 2 34 8 41 34 4 18 16 35 25 38 10 4 31 13 46 22 26 15 28 19 26 77 -1 34
-1 100 0 146 3 90 13 110 57 111 33 0 51 27 36 51 -7 11 -10 24 -6 30 3 6 8
27 10 47 2 20 8 78 14 127 23 184 23 180 6 194 -21 17 -20 33 2 47 9 6 23 33
31 59 12 42 12 50 -3 75 -9 16 -16 32 -16 37 0 5 33 9 74 9 43 0 80 5 89 12 7
6 19 38 26 69 7 32 17 71 22 87 15 50 10 88 -17 123 l-26 34 -216 -5 c-255 -5
-263 -6 -286 -28 -24 -25 -45 -22 -72 7 -19 21 -32 25 -76 25 -47 0 -56 3 -79
31 -20 25 -31 31 -50 26 -13 -3 -28 -16 -34 -29 -9 -21 -17 -23 -97 -26 l-86
-3 5 39 c7 54 -22 84 -75 80 -33 -3 -39 -8 -60 -52 -23 -48 -23 -48 -63 -43
-55 7 -69 22 -69 71 0 63 -7 68 -127 102 -8 2 -13 22 -13 52 0 59 -20 82 -72
82 -28 0 -37 -5 -47 -27 -38 -83 -32 -78 -97 -76 -69 3 -84 16 -84 79 0 32 -5
47 -21 58 -30 21 -72 4 -86 -35 -16 -42 -8 -57 41 -71 60 -17 67 -25 60 -67
-4 -20 -11 -44 -15 -53 -13 -25 -62 -32 -97 -14 -34 18 -44 38 -36 70 9 35
-20 58 -70 54 -38 -3 -42 -6 -54 -42 -15 -47 -8 -58 53 -79 36 -13 40 -18 43
-51 4 -52 -19 -76 -72 -76 -23 0 -46 4 -53 8 -6 4 -13 32 -15 62 l-3 55 -47 3
c-46 3 -48 2 -65 -32 -18 -40 -9 -60 35 -77 20 -8 22 -12 12 -24 -7 -8 -18
-15 -24 -15 -6 0 -24 -7 -40 -15 -32 -17 -46 -12 -46 16 0 16 -7 19 -44 19
-48 0 -64 -19 -51 -60 3 -11 4 -24 0 -29 -9 -15 -205 89 -205 109 0 16 24 74
55 133 13 25 13 28 -1 34 -9 3 -122 3 -251 0 -215 -6 -234 -5 -240 11 -4 9
-14 22 -23 29 -13 9 -133 177 -165 231 -5 9 -38 56 -71 103 -34 47 -67 96 -73
107 -7 12 -15 22 -19 22 -4 0 -16 -96 -25 -212z m-493 -168 c6 -6 18 -10 29
-10 18 0 97 -31 127 -50 8 -5 31 -19 51 -29 50 -28 179 -132 179 -145 0 -17
-110 -46 -131 -35 -27 14 -39 11 -50 -15 -12 -25 -92 -66 -157 -80 -17 -4 -32
-9 -32 -10 0 -18 35 -66 48 -66 20 0 122 -69 122 -82 0 -5 -10 -18 -22 -28
-19 -15 -21 -22 -13 -46 8 -21 18 -30 38 -32 24 -3 30 2 40 27 6 17 16 31 23
31 15 0 46 -35 38 -43 -7 -7 -25 -98 -26 -132 -1 -37 2 -45 16 -45 33 0 23
-21 -26 -54 l-53 -35 -13 24 c-19 36 -69 35 -78 -2 -5 -19 -2 -30 11 -39 15
-11 16 -18 7 -41 -7 -15 -16 -46 -21 -68 -5 -22 -16 -66 -25 -98 -10 -36 -14
-73 -10 -98 5 -30 3 -39 -8 -39 -24 0 -55 -42 -66 -90 -14 -61 -52 -194 -58
-199 -12 -13 -168 172 -237 282 -49 76 -112 203 -138 275 -11 31 -24 66 -29
77 -20 45 -50 186 -60 290 -12 123 -1 249 30 341 48 139 166 253 285 275 50
10 197 1 209 -11z m2359 -114 c22 -5 27 -12 27 -35 0 -33 -34 -81 -59 -81 -35
0 -61 29 -61 70 0 41 20 63 50 56 8 -2 27 -7 43 -10z m-193 -171 c0 -8 -9 -15
-20 -15 -11 0 -20 7 -20 15 0 8 9 15 20 15 11 0 20 -7 20 -15z m610 -44 c0 -7
-75 -41 -93 -41 -11 0 -8 25 5 38 14 14 88 17 88 3z m-2254 -61 c-3 -22 -4
-40 -1 -40 3 0 48 18 101 40 93 38 101 40 206 40 l110 0 -5 -27 c-10 -53 -35
-148 -42 -165 -6 -14 -19 -18 -66 -18 -65 0 -66 1 -48 63 6 22 9 41 6 43 -4 4
-51 -13 -114 -42 -18 -8 -50 -21 -70 -28 -63 -22 -133 -58 -133 -67 0 -5 22
-20 49 -34 27 -13 52 -28 55 -33 2 -4 -1 -24 -7 -45 l-12 -37 -57 0 c-45 0
-71 7 -118 32 -58 30 -69 44 -51 63 5 6 13 35 19 65 6 30 21 94 33 143 l23 87
64 0 65 0 -7 -40z m859 -1 c99 -50 110 -60 97 -86 -6 -10 -15 -41 -21 -68 -21
-102 -38 -172 -45 -183 -9 -15 -112 -16 -121 -2 -6 9 24 151 41 193 4 11 -9
23 -45 41 -42 22 -64 26 -134 26 l-84 0 -13 -40 c-7 -22 -11 -42 -9 -44 2 -2
44 -25 92 -51 49 -26 91 -54 94 -62 3 -7 0 -27 -7 -43 -12 -28 -16 -30 -69
-30 -48 0 -71 8 -159 52 -89 45 -103 55 -98 73 19 77 38 157 47 195 5 25 11
51 14 58 3 9 47 12 172 12 l168 0 80 -41z m685 29 c-1 -22 -37 -175 -44 -187
-4 -6 -34 -11 -67 -11 l-60 0 7 45 6 45 -76 0 c-53 0 -88 -6 -118 -19 -24 -11
-51 -22 -60 -25 -10 -3 -18 -9 -18 -14 0 -4 54 -34 120 -67 l120 -59 -6 -36
c-4 -19 -9 -38 -11 -42 -2 -5 -33 -8 -68 -8 -55 0 -74 5 -127 35 -35 19 -91
49 -125 67 -76 39 -78 47 -34 171 4 11 47 34 115 62 60 25 111 47 114 50 3 3
79 5 169 5 124 0 163 -3 163 -12z m157 -15 c-19 -89 -19 -95 -6 -104 27 -17
48 -10 51 18 3 25 14 32 103 70 81 34 112 43 162 43 34 0 65 -5 68 -11 4 -5 2
-23 -5 -38 -11 -27 -27 -37 -160 -93 -25 -10 -58 -25 -75 -32 l-29 -13 79 -40
c140 -71 145 -75 145 -108 0 -44 -16 -55 -80 -55 -48 0 -71 8 -161 54 -149 76
-142 75 -158 18 -7 -26 -14 -53 -17 -59 -4 -14 -119 -19 -128 -5 -2 4 2 34 11
67 8 33 20 85 27 115 8 30 21 88 31 128 l18 72 65 0 64 0 -5 -27z m960 0 c-16
-82 -36 -156 -43 -163 -22 -21 -124 -50 -176 -50 l-58 0 0 34 c0 37 10 49 54
63 17 5 32 15 34 23 8 23 -124 6 -190 -25 -47 -21 -58 -31 -58 -51 0 -18 11
-29 50 -49 44 -22 61 -25 165 -25 l115 0 0 -24 c0 -14 -4 -28 -10 -31 -5 -3
-10 -19 -10 -36 l0 -29 -137 0 -136 0 -94 48 -95 47 6 48 c3 26 11 72 18 101
l12 54 81 33 c44 18 91 39 105 46 18 9 77 13 199 13 l173 0 -5 -27z m593 20
c-1 -26 -40 -177 -48 -185 -5 -5 -33 -8 -63 -6 l-54 3 3 38 4 37 -50 0 c-45 0
-51 -3 -60 -27 -6 -16 -13 -47 -16 -71 -6 -42 -6 -42 39 -64 39 -19 45 -26 45
-53 0 -44 -16 -55 -79 -55 -41 0 -69 7 -108 28 -29 15 -53 30 -53 34 0 4 9 44
20 89 11 46 17 85 15 87 -3 3 -24 -3 -48 -12 -48 -18 -128 -21 -144 -5 -6 6
-7 24 -4 42 6 29 15 35 116 79 l110 47 188 0 c103 1 187 -2 187 -6z m-1925
-214 c4 -6 5 -13 2 -16 -8 -7 -47 7 -47 18 0 13 37 11 45 -2z m1385 -74 c6
-15 17 -25 30 -25 13 0 25 -12 35 -36 8 -20 15 -38 15 -40 0 -2 -29 -4 -64 -4
-62 0 -65 1 -80 31 -18 35 -12 74 13 89 27 16 41 11 51 -15z m-1264 -62 c-7
-17 -8 -17 -17 0 -12 21 -2 44 13 29 6 -6 8 -19 4 -29z m-413 -17 c24 -19 21
-26 -12 -26 -31 0 -47 13 -36 30 8 14 26 12 48 -4z m-755 -102 c5 -10 3 -35
-6 -67 -8 -29 -17 -70 -21 -92 l-6 -40 -180 -5 c-151 -4 -186 -8 -215 -24
l-34 -19 62 -56 c61 -55 73 -79 53 -111 -18 -27 0 -29 40 -4 95 59 108 64 181
64 l71 0 -7 -50 c-4 -28 -12 -62 -18 -75 -6 -15 -69 -59 -169 -119 l-158 -96
-186 0 c-102 0 -185 3 -185 8 1 6 21 97 38 167 l8 30 97 3 c53 1 97 6 97 9 0
4 -30 34 -66 67 l-65 61 26 100 c29 110 33 118 84 146 20 10 45 25 55 32 11 6
47 29 80 49 l61 38 177 0 c151 0 178 -2 186 -16z m709 7 c12 -7 -13 -157 -49
-296 l-13 -50 -74 -3 -74 -3 6 38 c3 21 9 53 12 71 l8 32 -61 0 c-68 0 -65 4
-89 -105 -36 -166 -39 -144 23 -201 50 -48 54 -54 44 -78 -5 -15 -10 -40 -10
-55 0 -42 -17 -51 -96 -51 -68 0 -75 2 -116 36 -60 49 -68 62 -58 87 4 12 15
58 25 102 9 44 23 109 31 143 9 35 13 66 11 69 -3 2 -23 -7 -46 -21 -35 -22
-52 -26 -122 -26 -80 0 -81 0 -74 23 3 12 11 41 17 65 8 34 19 50 56 77 26 19
58 40 72 47 14 7 51 30 82 50 32 21 68 43 80 48 26 10 399 12 415 1z m440 -13
c17 -13 68 -52 112 -88 l81 -65 -5 -45 c-2 -25 -12 -81 -20 -125 -9 -44 -22
-116 -30 -160 -7 -44 -19 -107 -27 -140 l-13 -60 -72 -3 c-70 -3 -73 -2 -73
20 0 30 38 244 50 284 6 17 10 46 10 65 -1 29 -9 40 -55 77 l-53 43 -98 -3
-99 -3 -11 -65 c-6 -36 -14 -72 -18 -81 -5 -11 11 -29 56 -65 98 -76 158 -135
158 -155 0 -10 -5 -41 -11 -69 l-11 -50 -78 0 c-77 0 -80 1 -123 38 -24 20
-72 60 -105 87 -66 53 -78 73 -64 102 10 18 61 268 70 336 2 20 8 40 13 43 5
3 9 19 9 35 0 17 5 39 10 50 10 18 23 19 188 19 168 0 179 -1 209 -22z m411
-16 c2 -18 -1 -53 -6 -78 -5 -24 -6 -44 -2 -44 4 0 62 36 130 80 l123 80 106
0 c58 0 112 -4 119 -9 13 -8 10 -36 -28 -291 -13 -90 -13 -90 -92 -90 l-70 0
7 77 c4 43 11 88 16 102 5 13 8 26 5 28 -2 2 -50 -26 -107 -63 -57 -37 -139
-90 -181 -117 -43 -28 -78 -56 -78 -63 0 -7 -2 -19 -6 -27 -3 -9 16 -32 55
-63 67 -54 74 -75 49 -155 l-11 -39 -75 0 c-73 0 -77 1 -128 41 -84 64 -81 36
-29 314 24 129 31 171 45 255 17 109 11 101 87 98 l68 -3 3 -33z m1126 28 c3
-3 1 -37 -4 -75 -5 -39 -14 -108 -20 -155 -6 -47 -13 -92 -16 -100 -2 -8 -34
-34 -70 -57 -62 -41 -69 -43 -139 -43 l-75 0 7 63 c3 34 10 67 15 73 5 7 33
27 63 45 30 19 55 38 55 42 0 5 -42 7 -92 5 -90 -4 -95 -5 -154 -46 -75 -51
-80 -57 -87 -104 -5 -35 -3 -38 56 -85 l62 -48 140 -5 140 -5 -1 -25 c-2 -34
-14 -130 -20 -157 -4 -23 -6 -23 -173 -23 l-169 0 -107 87 -107 87 6 41 c3 22
12 85 21 140 9 55 19 117 22 138 5 37 12 43 141 128 l135 90 183 -3 c100 -2
185 -5 188 -8z m-1606 -374 c6 -7 -18 -85 -29 -92 -6 -4 -26 9 -44 27 -28 29
-32 38 -24 58 8 21 13 23 51 17 23 -4 44 -9 46 -10z m728 -93 c-10 -10 -19 5
-10 18 6 11 8 11 12 0 2 -7 1 -15 -2 -18z m-1266 -28 c17 -9 30 -21 30 -28 0
-8 16 -32 36 -56 34 -39 35 -44 24 -72 -15 -35 -7 -46 35 -51 24 -2 31 -8 33
-31 5 -38 -8 -51 -79 -77 -59 -21 -89 -20 -58 3 12 9 16 33 17 101 1 48 -1 93
-6 100 -4 6 -7 22 -7 36 0 18 -6 25 -21 26 -32 2 -44 13 -44 40 0 28 2 29 40
9z m1160 -30 c0 -8 -4 -15 -10 -15 -5 0 -10 7 -10 15 0 8 5 15 10 15 6 0 10
-7 10 -15z m138 -142 c2 -25 -1 -33 -18 -38 -21 -7 -50 9 -50 28 0 18 33 48
49 45 10 -2 17 -16 19 -35z m-1808 7 c0 -28 -67 -146 -110 -193 -65 -71 -170
-117 -267 -117 -56 0 -157 22 -213 47 -91 40 -120 56 -114 64 3 5 85 9 182 9
l177 0 165 100 c91 55 168 99 173 100 4 0 7 -4 7 -10z m1920 -120 c0 -23 -22
-35 -46 -26 -15 6 -15 8 2 26 25 25 44 25 44 0z m94 -66 c10 -4 16 -18 16 -40
0 -37 -15 -46 -25 -14 -3 11 -15 20 -26 20 -22 0 -24 11 -7 28 14 14 20 14 42
6z m226 -19 c20 -24 8 -50 -24 -50 -36 0 -56 26 -37 49 17 20 45 21 61 1z"/>
<path d="M1020 3060 c0 -5 5 -10 11 -10 5 0 7 5 4 10 -3 6 -8 10 -11 10 -2 0
-4 -4 -4 -10z"/>
<path d="M806 2652 c-3 -6 -1 -14 5 -17 15 -10 25 3 12 16 -7 7 -13 7 -17 1z"/>
<path d="M917 2504 c-4 -4 -7 -18 -7 -31 0 -21 4 -24 28 -21 21 2 27 8 27 28
0 18 -6 26 -20 28 -12 2 -24 0 -28 -4z"/>
<path d="M885 2200 c-4 -6 -3 -16 3 -22 6 -6 12 -6 17 2 4 6 3 16 -3 22 -6 6
-12 6 -17 -2z"/>
<path d="M3000 3475 c0 -10 7 -15 18 -13 21 4 19 22 -2 26 -10 2 -16 -3 -16
-13z"/>
<path d="M3286 3435 c-9 -24 -8 -25 15 -25 14 0 19 5 17 17 -4 23 -24 27 -32
8z"/>
<path d="M2825 3379 c-10 -15 3 -59 18 -59 33 0 51 53 21 64 -22 9 -32 7 -39
-5z"/>
<path d="M3102 3338 c-19 -19 -14 -56 9 -68 26 -15 47 -7 58 22 16 41 -37 76
-67 46z"/>
<path d="M3401 3294 c-26 -18 -25 -51 2 -68 23 -15 51 3 55 37 4 35 -26 52
-57 31z"/>
<path d="M2658 3259 c-25 -14 -22 -36 7 -55 30 -20 55 -6 55 31 0 32 -30 43
-62 24z"/>
<path d="M3691 3232 c-7 -13 -7 -22 1 -30 21 -21 40 -14 36 15 -4 33 -23 41
-37 15z"/>
<path d="M2487 3144 c-14 -14 -7 -54 12 -64 31 -16 53 -2 49 34 -2 25 -8 32
-28 34 -14 2 -29 0 -33 -4z"/>
<path d="M3496 3128 c-8 -13 -16 -36 -18 -53 -3 -30 -2 -30 48 -33 46 -3 51
-1 62 23 15 32 2 62 -34 75 -36 14 -42 13 -58 -12z"/>
<path d="M3797 3066 c-12 -17 -13 -26 -4 -35 16 -16 52 -14 67 4 10 13 10 19
-5 35 -24 26 -39 25 -58 -4z"/>
<path d="M2333 3023 c-19 -7 -16 -50 3 -57 19 -7 44 10 44 30 0 16 -30 33 -47
27z"/>
<path d="M4110 3010 c0 -5 7 -10 16 -10 8 0 12 5 9 10 -3 6 -10 10 -16 10 -5
0 -9 -4 -9 -10z"/>
<path d="M4585 2010 c-3 -5 -3 -15 1 -21 6 -11 23 6 24 24 0 10 -18 9 -25 -3z"/>
<path d="M4684 1909 c-10 -17 13 -36 27 -22 12 12 4 33 -11 33 -5 0 -12 -5
-16 -11z"/>
<path d="M4562 1807 c-13 -15 8 -47 30 -47 21 0 41 27 34 45 -7 18 -49 20 -64
2z"/>
<path d="M4450 1690 c0 -37 2 -40 28 -40 34 0 52 16 52 46 0 23 -17 34 -56 34
-21 0 -24 -4 -24 -40z"/>
<path d="M4672 1718 c-27 -27 -6 -68 35 -68 16 0 24 7 29 25 11 43 -34 73 -64
43z"/>
<path d="M4560 1615 c-26 -32 16 -79 61 -68 22 6 26 52 7 71 -16 16 -53 15
-68 -3z"/>
<path d="M4456 1514 c-9 -8 -16 -21 -16 -28 0 -21 35 -46 63 -46 24 0 27 4 27
35 0 49 -42 71 -74 39z"/>
<path d="M4352 1404 c-14 -25 -2 -64 18 -64 35 0 50 12 50 40 0 39 -50 57 -68
24z"/>
<path d="M3252 1398 c-16 -16 -15 -23 4 -43 11 -10 20 -12 28 -6 6 5 22 11 35
13 35 5 38 26 4 34 -15 3 -35 8 -43 10 -9 2 -21 -1 -28 -8z"/>
<path d="M3504 1395 c-8 -20 36 -85 58 -85 21 0 32 16 21 33 -4 6 -8 23 -8 37
0 21 -5 26 -33 28 -22 2 -34 -2 -38 -13z"/>
<path d="M2246 1391 c-8 -13 4 -41 18 -41 22 0 39 18 33 34 -7 17 -42 22 -51
7z"/>
<path d="M2890 1381 c0 -12 6 -21 16 -21 9 0 14 7 12 17 -5 25 -28 28 -28 4z"/>
<path d="M4020 1286 c0 -29 5 -39 25 -48 21 -9 28 -8 45 7 23 21 27 65 6 65
-7 0 -28 3 -45 6 -30 6 -31 6 -31 -30z"/>
<path d="M3623 1304 c-21 -9 -15 -52 8 -64 27 -15 51 5 47 39 -3 26 -27 36
-55 25z"/>
<path d="M4255 1296 c-11 -8 -16 -19 -12 -30 9 -23 34 -31 52 -16 20 16 19 46
-1 54 -20 8 -17 8 -39 -8z"/>
<path d="M2353 1284 c-3 -8 1 -22 9 -30 13 -13 16 -13 27 0 7 9 11 23 7 31 -7
20 -35 19 -43 -1z"/>
<path d="M3414 1279 c-8 -14 11 -33 25 -25 16 10 13 36 -3 36 -8 0 -18 -5 -22
-11z"/>
<path d="M3093 1255 c-3 -9 -3 -19 1 -22 8 -9 37 18 30 28 -8 14 -24 11 -31
-6z"/>
<path d="M3390 1210 c0 -5 5 -10 11 -10 5 0 7 5 4 10 -3 6 -8 10 -11 10 -2 0
-4 -4 -4 -10z"/>
<path d="M3727 1193 c-13 -13 -7 -51 10 -57 22 -9 56 25 47 47 -6 17 -44 23
-57 10z"/>
<path d="M3924 1186 c-8 -22 14 -56 36 -56 23 0 43 32 34 54 -8 20 -63 21 -70
2z"/>
<path d="M4152 1188 c-17 -17 -2 -49 22 -46 28 4 34 44 7 51 -10 2 -24 0 -29
-5z"/>
<path d="M3527 1184 c-14 -14 -7 -35 11 -32 9 2 17 10 17 17 0 16 -18 25 -28
15z"/>
<path d="M4361 1177 c-9 -11 -8 -17 4 -27 19 -16 47 -5 43 17 -4 23 -31 28
-47 10z"/>
<path d="M3837 1083 c-13 -12 -7 -44 9 -50 23 -9 48 25 33 44 -12 14 -32 17
-42 6z"/>
<path d="M3630 1060 c0 -15 5 -20 18 -18 9 2 17 10 17 18 0 8 -8 16 -17 18
-13 2 -18 -3 -18 -18z"/>
<path d="M4040 1061 c0 -20 25 -35 41 -25 5 3 9 14 9 25 0 14 -7 19 -25 19
-18 0 -25 -5 -25 -19z"/>
<path d="M4264 1069 c-3 -6 -1 -16 5 -22 9 -9 14 -8 21 3 9 15 4 30 -10 30 -5
0 -12 -5 -16 -11z"/>
<path d="M3943 964 c-8 -20 8 -36 26 -25 15 10 8 41 -9 41 -6 0 -13 -7 -17
-16z"/>
<path d="M3737 964 c-9 -10 2 -24 19 -24 8 0 14 7 14 15 0 15 -21 21 -33 9z"/>
<path d="M4160 955 c0 -9 5 -15 11 -13 6 2 11 8 11 13 0 5 -5 11 -11 13 -6 2
-11 -4 -11 -13z"/>
<path d="M4380 950 c0 -5 5 -10 10 -10 6 0 10 5 10 10 0 6 -4 10 -10 10 -5 0
-10 -4 -10 -10z"/>
</g>
</svg>
